PathFileType	4	(X/Y/Z)	Patient4_TMGait_0pt7_01_right_48.trc.trc
DataRate	CameraRate	NumFrames	NumMarkers	Units	OrigDataRate	OrigDataStartFrame	OrigNumFrames
84.337349397590	84.337349397590	4	33	mm	84.337349397590	36	       141
Frame#	Time	Sacral			L.Shoulder			Chest			R.Shoulder			Neck			R.ASIS			L.ASIS			R.Thigh.Superior			R.Thigh.Lateral			R.Thigh.Inferior			R.Patella			L.Thigh.Superior			L.Thigh.Lateral			L.Thigh.Inferior			L.Patella			L.Shank.Superior			L.Shank.Lateral			L.Shank.Inferior			R.Shank.Superior			R.Shank.Lateral			R.Shank.Inferior			R.Heel			R.Midfoot.Superior			R.Midfoot.Lateral			R.Toe			L.Heel			L.Midfoot.Lateral			L.Midfoot.Superior			L.Toe			L.Elbow			L.Wrist			R.Elbow			R.Wrist			
		X1	Y1	Z1	X2	Y2	Z2	X3	Y3	Z3	X4	Y4	Z4	X5	Y5	Z5	X6	Y6	Z6	X7	Y7	Z7	X8	Y8	Z8	X9	Y9	Z9	X10	Y10	Z10	X11	Y11	Z11	X12	Y12	Z12	X13	Y13	Z13	X14	Y14	Z14	X15	Y15	Z15	X16	Y16	Z16	X17	Y17	Z17	X18	Y18	Z18	X19	Y19	Z19	X20	Y20	Z20	X21	Y21	Z21	X22	Y22	Z22	X23	Y23	Z23	X24	Y24	Z24	X25	Y25	Z25	X26	Y26	Z26	X27	Y27	Z27	X28	Y28	Z28	X29	Y29	Z29	X30	Y30	Z30	X31	Y31	Z31	X32	Y32	Z32	X33	Y33	Z33	

36	55.595000000000	859.364615749138	1002.394220991401	521.394959473486	1076.056278648135	1420.545563785439	342.112636891818	1167.485323685292	1341.295084255547	506.711526528269	1083.885820773972	1424.520775728170	675.333098672647	1078.097693348772	1479.640550362826	496.304934934955	1082.998813654381	931.807977903759	646.113173142241	1076.146537343523	944.554989236412	370.003764213392	1148.910216183463	749.939565012828	616.853687925169	1083.600475093196	632.971155862402	676.546394877644	1167.997499019822	591.528430823625	596.523949193351	1182.907375120166	502.770219289141	604.172766657039	1110.337851282658	728.516031817158	394.556145713249	1025.962232809516	616.954554608378	322.810800137282	1109.599317593907	529.232256982227	381.701483886116	1098.712667278555	442.440996598639	376.802542109589	1024.578691977191	389.334557813375	368.128567264389	881.887115251183	362.598157018909	314.810068893069	851.961808137470	236.752353725764	369.352307335890	1161.449801498218	411.841643684709	611.831299129627	1099.643742045078	303.076040015946	675.758169099748	1148.900297139673	211.579591008449	612.337268145724	1025.081419122410	43.523822367171	585.907579567213	1196.872108574804	98.779369673690	616.030649244241	1110.987294344229	36.874071148493	656.561393523104	1318.311111788897	46.976910605425	638.120191807702	654.452102898066	192.690634783465	400.232974252498	709.260862613132	142.106372133703	321.798183771845	812.831880065860	138.614362108331	346.945460830295	879.398537969785	29.834041421451	320.391678437691	1071.730556463097	1082.187747823768	205.474400044607	1316.515253889707	1030.915204148946	260.971482008549	989.752601053733	1089.425050156644	796.859846418997	1032.924289789847	830.653068973899	812.238185125806	
37	55.606857142857	858.723848194076	1003.424391922320	524.766041532831	1074.783642656022	1421.281954010091	343.868238922335	1167.179912909653	1342.202307656585	507.997705210036	1084.674680420271	1425.540683974403	677.094931644674	1077.780337617736	1480.525655735451	498.051570672388	1082.858197322131	932.954857530070	648.315661015767	1075.295134344246	945.824409561157	372.336311132407	1146.971255929196	749.359431756205	619.488807655869	1080.364267736709	633.037333483310	678.619996201442	1164.164764217909	590.921780878829	598.258412422052	1178.097127592425	502.073636555922	605.336004364246	1114.955772957683	732.405347321502	397.550820446925	1035.686999903077	618.673901006046	324.504364181395	1121.891934269862	533.184384590093	383.884595477932	1112.730890885350	445.279977370318	378.429356203268	1037.406680620155	391.924936941585	369.492091766390	893.938571526409	369.239129247958	315.862157815328	860.552042794550	243.960539708938	369.947597887967	1156.047761592093	411.366773278466	612.877524179071	1093.685541491468	302.906376460828	676.703381914187	1141.869598868760	211.252838883047	612.719939211077	1016.926236554451	43.565040755269	586.069727048034	1188.776887317335	98.762715169165	616.244595553366	1102.791149417348	36.853747310617	656.763309637488	1310.152639507825	46.709276913958	638.374009503052	661.851840314532	208.264989515006	399.948978357611	714.698907911332	154.466638371208	321.985001336119	818.280765962897	145.464373086227	347.846074403901	878.798092209880	30.280755191084	321.922776078982	1065.367770664858	1081.121680169081	210.631680292030	1307.846289769134	1014.309571782412	263.382865531900	998.498384570024	1089.027353004095	801.684878122004	1053.791903770579	832.452139336205	816.472639726527	
38	55.618714285714	857.968139817327	1004.352602266783	527.996010088407	1073.140529966953	1421.879297263904	345.465374662208	1166.695437321067	1343.036362401151	509.062611976196	1085.367538607262	1426.455424324486	678.743072452459	1077.224745681705	1481.319837256834	499.639740430936	1082.560635247257	933.969066562263	650.363232246726	1074.253106881754	946.948637733409	374.544941453541	1144.869752001858	748.665739323254	622.173118063874	1076.930974202041	633.016430605570	680.647542738628	1160.209599091783	590.264982629962	600.028913309931	1173.118250710838	501.342466375860	606.568656708349	1119.285523214497	736.516253729852	400.396370965086	1044.998394755570	620.905752594002	326.057202670990	1133.665200275269	537.736148805578	385.912741688953	1126.447300367790	448.854646799192	380.014427795050	1050.257631266539	395.036011800640	370.798220289941	906.280655798918	375.555471912226	316.781789591191	870.089083391243	250.780323450744	370.507070400132	1150.504089413687	410.840178021671	613.938910606015	1087.566027546436	302.676421827057	677.619342680090	1134.739563454685	210.880890820669	613.104461830527	1008.683300085979	43.594894335889	586.209618324285	1180.623108109044	98.690074992809	616.421482799570	1094.516174808429	36.806600608098	656.945018518127	1301.931654849306	46.344365382209	638.586356016951	670.596495813777	221.772318069147	399.509476171447	721.979686011726	165.367214376299	322.099782929724	825.374546816584	152.040256854995	348.734890061585	880.972001261205	31.470637088734	323.573870210707	1059.014554972122	1079.984706929272	215.564070356174	1298.050139382361	997.174749573296	265.388791340455	1007.384425321259	1088.752106491722	806.397502332831	1075.092328397471	835.039780618170	820.259527070533	
39	55.630571428571	857.111650317305	1005.199743086528	531.054657770238	1071.178253773138	1422.356522508996	346.916617417188	1166.048069210476	1343.803920105613	509.933925549697	1085.968684801685	1427.298452786865	680.269262118052	1076.476635182277	1482.044374964651	501.067743688742	1082.105783012808	934.869221917972	652.286918411383	1073.006543891216	947.931353794881	376.652248743704	1142.657453378725	747.930031742359	624.829414669565	1073.367444130869	632.950336004905	682.598488062614	1156.189467645734	589.586285250205	601.803120126248	1168.033753414016	500.603090814028	607.849465753072	1123.268587120690	740.843005000140	403.076148747390	1053.781391511909	623.642475258559	327.465999455662	1144.814542594692	542.860315785178	387.741890240120	1139.742854770740	453.147449473947	381.477939890421	1063.031378411199	398.640937290447	371.995860842002	918.765556371494	381.386664128988	317.580235483971	880.577536972531	256.971592941446	371.025443003457	1144.873287922047	410.288932978950	614.998947328776	1081.333896855523	302.422842982605	678.505380978090	1127.545705954272	210.486672604927	613.492407915475	1000.372534905013	43.623660286781	586.340785185453	1172.421769813816	98.572744373748	616.569490866518	1086.185237452355	36.749422323224	657.113307860962	1293.667650226229	45.916398389041	638.764756943862	680.613457356828	232.662517661048	399.015186575910	731.098897951658	174.359461788699	322.170764787232	834.220483440848	158.045765434098	349.554748883434	886.286359188625	33.351294808255	325.187725516540	1052.681649002167	1078.794013201152	220.266235644052	1287.020845524416	979.695223544691	266.972847655727	1016.426071985802	1088.625827863160	810.938911784261	1096.725724835481	838.495270173132	823.526002106817	
